<!DOCTYPE svg PUBLIC "-//W3C//DTD SVG 1.1//EN" "http://www.w3.org/Graphics/SVG/1.1/DTD/svg11.dtd">
<!-- Uploaded to: SVG Repo, www.svgrepo.com, Transformed by: SVG Repo Mixer Tools -->
<svg fill="#b5b5b5" height="256px" width="256px" version="1.1" id="Layer_1" xmlns="http://www.w3.org/2000/svg" xmlns:xlink="http://www.w3.org/1999/xlink" viewBox="0 0 512 512" xml:space="preserve">
<g id="SVGRepo_bgCarrier" stroke-width="0"/>
<g id="SVGRepo_tracerCarrier" stroke-linecap="round" stroke-linejoin="round"/>
<g id="SVGRepo_iconCarrier"> <g> <g> <path d="M192.381,72.018c-4.546,0-8.23,3.685-8.23,8.23s3.685,8.23,8.23,8.23h66.41c0.211-5.778,1.375-11.315,3.344-16.46H192.381 z"/> </g> </g> <g> <g> <path d="M133.289,119.23c-8.583,22.257-6.643,17.226-14.612,37.893c7.783-7.849,29.932-30.183,37.578-37.893 C147.52,119.23,141.592,119.23,133.289,119.23z"/> </g> </g> <g> <g> <path d="M150.694,252.853c-14.206-6.112-24.703-10.627-38.206-16.436L52.43,296.979l-0.114,0.115v178.044 c0,12.31,9.978,22.289,22.289,22.289s22.289-9.98,22.289-22.289V296.979h9.624v178.159c0,12.31,9.978,22.289,22.289,22.289 s22.289-9.98,22.289-22.289C151.097,336.828,150.694,255.564,150.694,252.853z"/> </g> </g> <g> <g> <path d="M114.335,149.197l-7.552-13.734l6.7-12.186c0.998-1.816-0.318-4.046-2.392-4.046h-18.41c-2.073,0-3.393,2.227-2.392,4.046 l6.715,12.211l-7.565,13.759c-0.879,1.597-1.167,3.453-0.811,5.241l3.79,19.257c4.166-2.33,8.843-3.686,13.656-3.912l7.39-7.452 l1.661-7.843C115.509,152.72,115.229,150.825,114.335,149.197z"/> </g> </g> <g> <g> <path d="M200.581,251.085c-5.875,6.7-14.383,10.522-23.214,10.522c-4.034,0-8.134-0.799-12.078-2.479v14.592H206.6l0.114-22.635 H200.581z"/> </g> </g> <g> <g> <path d="M469.843,94.351c-2.06-1.942-4.474-3.269-7.017-4.017l-3.859-18.371c-1.168-5.561-6.622-9.119-12.183-7.953 c-4.14,0.869-7.167,4.115-7.965,8.011H358.36c1.969,5.146,3.133,10.682,3.344,16.461h79.707l1.83,8.71l-35.394,37.531 c-0.44,0.051-63.57,7.452-64.014,7.452c-14.5,0-65.069,0-80.157,0c-22.603,0-41.075,18.435-41.189,40.981 c-0.028,5.612-0.614,122.255-0.642,127.867c-0.049,9.665,7.77,17.445,17.317,17.492c0.011,0,0.022,0,0.033,0 c0.019,0,0.038,0,0.056,0c9.519,0,17.355-7.715,17.403-17.317c0.028-5.613,0.614-122.256,0.642-127.868c0-0.001,0-0.001,0-0.001 c0.076-1.985,1.727-3.542,3.712-3.503c1.985,0.039,3.571,1.661,3.57,3.647c-0.029,52.922-0.377,168.232-0.377,292.439 c0,11.535,9.351,20.885,20.886,20.885c11.535,0,20.886-9.351,20.886-20.885V308.969h9.018v166.943 c0,11.535,9.351,20.885,20.886,20.885s20.886-9.351,20.886-20.885c0-1.648,0.051-271.996,0.057-300.177 c10.484-1.226,54.978-6.428,61.363-7.175c4.063-0.475,7.83-2.367,10.639-5.345l41.74-44.261 C477.158,111.961,476.836,100.946,469.843,94.351z"/> </g> </g> <g> <g> <path d="M310.249,54.299c-19.97,0-36.072,16.204-36.072,36.072c0,19.887,16.109,36.072,36.072,36.072 c19.924,0,36.072-16.152,36.072-36.072C346.321,70.432,330.159,54.299,310.249,54.299z"/> </g> </g> <g> <g> <path d="M81.303,216.987l-36.824,37.242c0.048-9.445,0.406-80.719,0.459-91.33c0.011-2.032,1.664-3.673,3.695-3.667 c2.031,0.006,3.675,1.655,3.675,3.686v61.13l24.346-24.55c0.139-3.694,0.942-7.426,2.49-11.025 c2.67-6.206,7.136-11.082,12.527-14.295c-4.134-10.723-17.193-44.593-21.284-55.201H51.745c-24.115,0-43.834,19.619-43.955,43.735 L7.254,269.48L7.14,291.992l-4.167,4.215c-3.995,4.04-3.959,10.555,0.081,14.55c2.669,2.638,6.623,3.683,10.396,2.467 c3.245,2.845,7.48,4.59,12.133,4.613c0.032,0,0.064,0,0.096,0c10.071,0,18.521-8.191,18.572-18.48l0.079-15.713l53.101-53.705 C90.87,227.116,85.662,223.997,81.303,216.987z"/> </g> </g> <g> <g> <path d="M183.58,128.183c-4.042-3.994-10.557-3.957-14.55,0.082l-45.282,45.797l20.301,8.734l39.613-40.063 C187.656,138.693,187.62,132.178,183.58,128.183z"/> </g> </g> <g> <g> <path d="M195.614,162.711c-0.016-3.121-0.365-6.165-1.005-9.104c0,0-36.014,35.642-35.867,35.509l-0.148,0.134l-0.065,13.154 l-43.693-18.797c-9.424-4.056-20.349,0.299-24.402,9.722c-4.054,9.425,0.299,20.349,9.722,24.403l69.885,30.064 c12.313,5.298,26.044-3.831,25.913-17.244L195.614,162.711z"/> </g> </g> <g> <g> <path d="M500.683,14.572h-352.96c-6.25,0-11.317,5.067-11.317,11.317v3.784c10.407,9.456,16.952,23.091,16.952,38.227 c0,13.826-5.471,26.39-14.349,35.669h20.03V37.205h330.326v213.88H372.204v22.635h128.479c6.25,0,11.317-5.067,11.317-11.317 V25.889C512,19.639,506.933,14.572,500.683,14.572z"/> </g> </g> <g> <g> <circle cx="101.712" cy="67.9" r="38.276"/> </g> </g> </g>
</svg>